HIERARCHY
ROOT Hips
{
	OFFSET 0.00 0.00 0.00
	CHANNELS 6 Xposition Yposition Zposition Xrotation Yrotation Zrotation
	JOINT LeftUpLeg
	{
		OFFSET 2.83210 0.00000 0.00000
		CHANNELS 3 Xrotation Yrotation Zrotation
		JOINT LeftLeg
		{
			OFFSET 0.00000 -16.27150 0.00000
			CHANNELS 3 Xrotation Yrotation Zrotation
			JOINT LeftFoot
			{
				OFFSET 0.00000 -14.95190 0.00000
				CHANNELS 3 Xrotation Yrotation Zrotation
				JOINT LeftToeBase
				{
					OFFSET 0.00000 -1.07991 4.03030
					CHANNELS 3 Xrotation Yrotation Zrotation
					End Site
					{
						OFFSET 0.00000 0.00000 2.95275
					}
				}
			}
		}
	}
	JOINT RightUpLeg
	{
		OFFSET -2.83210 0.00000 0.00000
		CHANNELS 3 Xrotation Yrotation Zrotation
		JOINT RightLeg
		{
			OFFSET 0.00000 -16.27150 0.00000
			CHANNELS 3 Xrotation Yrotation Zrotation
			JOINT RightFoot
			{
				OFFSET 0.00000 -14.95190 0.00000
				CHANNELS 3 Xrotation Yrotation Zrotation
				JOINT RightToeBase
				{
					OFFSET 0.00000 -1.07991 4.03030
					CHANNELS 3 Xrotation Yrotation Zrotation
					End Site
					{
						OFFSET 0.00000 0.00000 2.95275
					}
				}
			}
		}
	}
	JOINT Spine
	{
		OFFSET 0.00000 0.03937 0.00000
		CHANNELS 3 Xrotation Yrotation Zrotation
		JOINT Spine1
		{
			OFFSET 0.00000 8.01054 0.00000
			CHANNELS 3 Xrotation Yrotation Zrotation
			JOINT Neck
			{
				OFFSET 0.00000 8.21888 0.00000
				CHANNELS 3 Xrotation Yrotation Zrotation
				JOINT Head
				{
					OFFSET 0.00000 3.25664 0.00000
					CHANNELS 3 Xrotation Yrotation Zrotation
					End Site
					{
						OFFSET 0.00000 4.52755 0.00000
					}
				}
			}
			JOINT LeftShoulder
			{
				OFFSET 0.00000 8.21888 0.00000
				CHANNELS 3 Xrotation Yrotation Zrotation
				JOINT LeftArm
				{
					OFFSET 6.52904 -0.00002 0.00000
					CHANNELS 3 Xrotation Yrotation Zrotation
					JOINT LeftForeArm
					{
						OFFSET 10.44840 -0.00004 0.00000
						CHANNELS 3 Xrotation Yrotation Zrotation
						JOINT LeftHand
						{
							OFFSET 8.94727 -0.00003 0.00000
							CHANNELS 3 Xrotation Yrotation Zrotation
							JOINT LeftHandThumb
							{
								OFFSET 0.00000 0.00000 0.00000
								CHANNELS 3 Xrotation Yrotation Zrotation
								End Site
								{
									OFFSET 0.00000 0.00000 3.93700
								}
							}
							JOINT L_Wrist_End
							{
								OFFSET 3.93700 -0.00001 0.00000
								CHANNELS 3 Xrotation Yrotation Zrotation
							}
						}
					}
				}
			}
			JOINT RightShoulder
			{
				OFFSET 0.00000 8.21888 0.00000
				CHANNELS 3 Xrotation Yrotation Zrotation
				JOINT RightArm
				{
					OFFSET -6.52904 -0.00002 0.00000
					CHANNELS 3 Xrotation Yrotation Zrotation
					JOINT RightForeArm
					{
						OFFSET -10.44840 -0.00004 0.00000
						CHANNELS 3 Xrotation Yrotation Zrotation
						JOINT RightHand
						{
							OFFSET -8.94727 -0.00003 0.00000
							CHANNELS 3 Xrotation Yrotation Zrotation
							JOINT RightHandThumb
							{
								OFFSET 0.00000 0.00000 0.00000
								CHANNELS 3 Xrotation Yrotation Zrotation
								End Site
								{
									OFFSET 0.00000 0.00000 3.93700
								}
							}
							JOINT R_Wrist_End
							{
								OFFSET -5.39369 -0.00002 0.00000
								CHANNELS 3 Xrotation Yrotation Zrotation
							}
						}
					}
				}
			}
		}
	}
}
MOTION
Frames: 9
Frame Time: 0.033332
 1.8487 32.9953 -4.1898 44.0061 -82.4832 46.7873 -2.7670 -2.7735 -10.6683 -4.9319 -0.0000 0.0000 3.9146 12.0321 0.7507 15.0471 -0.0000 0.0000 -36.5145 1.0002 -8.8524 102.8990 -0.0000 0.0000 7.4570 -11.6966 15.6013 17.1115 0.0000 0.0000 -7.9436 2.0471 -9.2485 9.6304 -6.7424 4.7244 -14.1775 26.0378 -4.3172 -27.1529 -50.0263 -17.0618 12.2080 15.7808 5.0479 90.7736 -58.3258 39.1534 -0.0005 -66.1938 -0.0003 16.0163 -19.4425 -24.6361 -0.0000 0.0000 -0.0000 -0.0000 0.0000 -0.0000 17.4876 -16.9028 -2.5297 56.0951 49.8304 -7.1209 -0.0022 84.4805 0.0020 22.1549 8.6969 -10.1815 -0.0000 0.0000 -0.0000 -0.0000 0.0000 -0.0000
 0.2661 33.1711 -4.3298 32.9681 -81.5573 33.9485 0.6689 -0.4532 -8.5797 -3.8520 -0.0000 0.0000 1.5119 8.7568 1.2659 15.0472 -0.0000 0.0000 -41.6804 2.6358 -5.6967 102.6641 -0.0000 0.0000 3.7094 -11.4850 13.3766 16.9247 0.0000 0.0000 -8.0206 0.6618 -9.3574 10.6299 -7.5642 7.4910 -15.4924 26.8479 -1.9607 -24.8661 -49.0445 -18.9819 10.5997 13.0923 7.0936 102.4636 -59.9217 46.7117 -0.0004 -59.3596 -0.0002 12.3722 -21.9908 -21.1217 -0.0000 0.0000 -0.0000 -0.0000 0.0000 -0.0000 18.0132 -18.6639 -0.7231 52.0230 47.9056 -7.9842 -0.0068 88.2196 0.0066 24.1985 8.2365 -6.8484 -0.0000 -0.0000 0.0000 -0.0000 -0.0000 0.0000
 -1.3523 33.2279 -4.4297 25.2083 -81.2041 25.1108 3.9663 1.9963 -7.2452 -2.2501 -0.0000 0.0000 -1.0160 7.0791 0.3781 16.9561 0.0000 -0.0000 -45.2119 3.7224 -2.8170 97.8657 -0.0000 0.0000 -0.0008 -12.3300 12.5503 15.7709 -0.0000 0.0000 -8.3577 -0.1887 -9.4578 12.2033 -8.0875 9.0352 -17.3876 27.7029 0.6776 -21.8629 -48.5030 -20.2148 10.2429 11.0944 8.3431 111.1268 -61.6140 53.2375 -0.0003 -53.6192 -0.0001 10.3260 -23.2541 -19.8860 -0.0000 0.0000 -0.0000 -0.0000 0.0000 -0.0000 18.1431 -19.6715 0.6101 49.1486 47.3201 -8.7062 -179.9851 89.1895 179.9849 26.8686 7.5919 -3.8536 -0.0000 0.0000 -0.0000 -0.0000 0.0000 -0.0000
 -2.9737 33.1288 -4.4801 20.3623 -81.3163 19.7715 6.5965 3.2537 -6.9202 0.2398 0.0000 -0.0000 -5.0996 8.5831 2.1306 16.8386 0.0000 0.0000 -47.1271 4.2066 -0.2732 88.8344 0.0000 0.0000 -2.6996 -15.6118 14.1222 15.6619 -0.0000 0.0000 -9.0325 -0.6851 -9.7367 14.1024 -8.3469 10.1323 -19.3037 27.7602 1.6811 -16.8925 -48.1673 -18.3365 10.2985 10.1016 8.6673 116.1239 -62.9998 57.5068 -0.0002 -49.7079 -0.0001 10.8655 -25.9384 -17.2860 -0.0000 0.0000 -0.0000 -0.0000 0.0000 -0.0000 18.5982 -19.9407 1.6560 46.1635 47.3837 -8.9484 -179.9950 87.5753 179.9948 28.0323 6.5322 -0.7102 -0.0000 0.0000 -0.0000 -0.0000 0.0000 -0.0000
 -4.5752 32.8725 -4.4934 19.1306 -81.7160 18.3948 8.5436 2.4985 -7.1651 2.8866 0.0000 -0.0000 -9.8714 12.1262 5.9190 15.7015 0.0000 0.0000 -47.3022 3.9004 1.7694 75.6855 -0.0000 0.0000 -5.9219 -19.0924 16.1024 15.4388 0.0000 0.0000 -9.8845 -0.9236 -10.1382 15.6077 -8.3725 11.1004 -20.9315 28.0752 2.8724 -13.2510 -47.6268 -17.8796 10.5626 10.0664 8.2914 118.4017 -63.3408 60.0951 -0.0002 -47.0977 -0.0001 12.5088 -28.1615 -14.0377 -0.0000 0.0000 -0.0000 -0.0000 0.0000 -0.0000 18.8265 -19.8768 2.6119 44.3992 47.3635 -9.9084 -179.9967 86.3522 179.9965 30.6497 5.8227 2.0012 -0.0000 -0.0000 0.0000 -0.0000 -0.0000 0.0000
 -6.2294 32.5051 -4.4824 20.5323 -82.4637 19.8836 10.7778 2.6440 -7.4217 4.9092 -0.0000 0.0000 -13.9281 13.7974 8.6552 14.3307 0.0000 0.0000 -45.1067 2.9358 3.2477 58.2739 -0.0000 0.0000 -7.2303 -20.2855 19.3256 14.9710 0.0000 0.0000 -11.1054 -0.8630 -10.8532 17.1996 -8.0025 12.3163 -23.2492 27.9156 3.9068 -8.8128 -46.6877 -17.2008 10.6656 9.8741 7.7606 119.1623 -63.3417 60.8547 -0.0002 -45.5716 -0.0001 12.1633 -29.5720 -12.0599 -0.0000 0.0000 -0.0000 -0.0000 0.0000 -0.0000 18.7852 -19.7771 3.9135 44.0464 46.6569 -12.1177 -179.9973 85.5103 179.9971 31.8458 5.5553 4.4642 -0.0000 0.0000 -0.0000 -0.0000 0.0000 -0.0000
 -7.9477 32.0769 -4.4095 23.2869 -83.3685 23.3863 13.5464 3.4527 -8.0730 6.2323 0.0000 -0.0000 -15.9494 13.4599 8.2947 12.6684 -0.0000 0.0000 -40.5147 1.6844 3.8097 37.6638 -0.0000 0.0000 -5.1030 -15.2277 22.3764 13.2039 0.0000 0.0000 -12.3074 -0.7610 -11.7620 18.4750 -7.7192 13.0247 -24.7053 27.9026 4.4317 -5.6703 -45.7093 -16.5651 11.0941 9.3970 7.0882 118.4030 -62.9291 59.7053 -0.0002 -45.2003 -0.0001 10.5860 -31.5687 -9.9471 -0.0000 0.0000 -0.0000 -0.0000 0.0000 -0.0000 18.9347 -19.5751 4.9587 44.0043 46.4748 -14.1407 -179.9968 86.2175 179.9966 30.6828 5.4822 6.7090 -0.0000 -0.0000 0.0000 -0.0000 -0.0000 0.0000
 -9.7661 31.6185 -4.2873 24.3660 -83.8949 25.6378 16.3624 5.5105 -8.7407 8.4631 0.0000 -0.0000 -16.2819 11.2706 5.3333 10.3325 0.0000 -0.0000 -34.7784 1.7426 3.5952 18.1698 -0.0000 0.0000 -3.0146 -8.0881 28.2095 12.4157 -0.0000 0.0000 -13.0739 -0.8313 -12.4447 19.0195 -7.9172 12.8216 -26.2657 28.3162 5.4981 -3.4288 -44.9521 -16.8037 11.3599 8.7904 7.0452 118.2017 -62.2844 58.3036 -0.0002 -45.2338 -0.0001 8.2584 -33.2245 -7.5522 -0.0000 0.0000 -0.0000 -0.0000 0.0000 -0.0000 18.9001 -19.7748 5.7157 44.9607 47.0909 -15.9770 -179.9947 87.7099 179.9945 29.6440 5.7271 7.9347 -0.0000 -0.0000 0.0000 -0.0000 -0.0000 0.0000
 -11.7211 31.2571 -4.2194 23.2971 -84.2986 24.7057 18.3873 9.3758 -7.9508 13.1000 -0.0000 0.0000 -15.1192 7.7837 2.6509 5.4852 0.0000 -0.0000 -29.6553 5.3699 4.1865 5.6895 0.0000 0.0000 -0.7368 -8.0634 23.9556 10.7517 -0.0000 -0.0000 -13.6495 -0.9514 -12.5639 19.5212 -7.9567 13.1853 -27.5404 28.7984 6.5700 -2.6433 -44.4103 -18.1811 11.5099 8.1517 6.8666 117.9258 -61.1446 56.7143 -0.0002 -45.7968 -0.0001 4.7601 -34.5319 -6.9849 -0.0000 0.0000 -0.0000 -0.0000 0.0000 -0.0000 18.9459 -19.7360 6.4899 44.8246 47.2726 -15.9941 -179.9939 88.0138 179.9937 29.6708 4.7207 9.6518 -0.0000 -0.0000 0.0000 -0.0000 -0.0000 0.0000
